<svg width="32" height="32" viewBox="0 0 32 32" fill="none" xmlns="http://www.w3.org/2000/svg">
<path d="M12.0001 26C12.0001 26.2652 11.8948 26.5196 11.7072 26.7071C11.5197 26.8947 11.2653 27 11.0001 27H5.00013C4.47367 26.9997 3.95657 26.8608 3.50077 26.5974C3.04496 26.334 2.66651 25.9552 2.40342 25.4992C2.14033 25.0432 2.00187 24.526 2.00195 23.9996C2.00203 23.4731 2.14065 22.9559 2.40388 22.5L6.69013 15.0938L4.93388 15.5625C4.80666 15.5965 4.67399 15.6051 4.54346 15.5878C4.41292 15.5705 4.28707 15.5277 4.17308 15.4617C3.94288 15.3286 3.775 15.1094 3.70638 14.8525C3.63775 14.5956 3.674 14.3219 3.80715 14.0917C3.9403 13.8615 4.15945 13.6936 4.41638 13.625L8.51263 12.5288C8.63952 12.4947 8.77187 12.4861 8.90212 12.5032C9.03236 12.5204 9.15796 12.563 9.27172 12.6287C9.38548 12.6944 9.48518 12.7819 9.56512 12.8861C9.64506 12.9904 9.70368 13.1094 9.73763 13.2363L10.8364 17.3325C10.8711 17.46 10.8802 17.5931 10.8632 17.7241C10.8461 17.8551 10.8033 17.9814 10.7372 18.0958C10.6711 18.2102 10.5829 18.3103 10.4779 18.3904C10.3728 18.4705 10.2529 18.529 10.1251 18.5625C10.0402 18.5846 9.95287 18.596 9.86513 18.5963C9.64514 18.5961 9.43136 18.5233 9.25691 18.3893C9.08245 18.2553 8.95705 18.0675 8.90013 17.855L8.42513 16.0863L4.13888 23.5C4.05131 23.6517 4.00511 23.8237 4.0049 23.9988C4.00469 24.174 4.05047 24.3461 4.13768 24.498C4.22488 24.6498 4.35044 24.7761 4.5018 24.8643C4.65315 24.9524 4.825 24.9992 5.00013 25H11.0001C11.2653 25 11.5197 25.1054 11.7072 25.2929C11.8948 25.4804 12.0001 25.7348 12.0001 26ZM29.5914 22.5L26.6989 17.5C26.5605 17.2824 26.3434 17.1266 26.0929 17.0652C25.8424 17.0038 25.5778 17.0416 25.3545 17.1707C25.1312 17.2998 24.9664 17.5102 24.8946 17.7579C24.8227 18.0056 24.8493 18.2715 24.9689 18.5L27.8614 23.5C27.9489 23.6517 27.9951 23.8237 27.9954 23.9988C27.9956 24.174 27.9498 24.3461 27.8626 24.498C27.7754 24.6498 27.6498 24.7761 27.4985 24.8643C27.3471 24.9524 27.1753 24.9992 27.0001 25H18.4139L19.7064 23.7075C19.894 23.52 19.9995 23.2657 19.9996 23.0005C19.9997 22.7352 19.8945 22.4808 19.707 22.2931C19.5195 22.1055 19.2652 22 18.9999 21.9999C18.7347 21.9998 18.4803 22.105 18.2926 22.2925L15.2926 25.2925C15.1997 25.3854 15.1259 25.4957 15.0756 25.6171C15.0252 25.7385 14.9993 25.8686 14.9993 26C14.9993 26.1314 15.0252 26.2616 15.0756 26.383C15.1259 26.5044 15.1997 26.6146 15.2926 26.7075L18.2926 29.7075C18.3855 29.8003 18.4958 29.874 18.6172 29.9242C18.7385 29.9744 18.8686 30.0002 18.9999 30.0001C19.1313 30.0001 19.2613 29.9741 19.3826 29.9238C19.504 29.8735 19.6142 29.7998 19.707 29.7069C19.7998 29.614 19.8734 29.5037 19.9237 29.3823C19.9739 29.261 19.9997 29.1309 19.9996 28.9996C19.9996 28.8682 19.9736 28.7382 19.9233 28.6169C19.873 28.4956 19.7993 28.3853 19.7064 28.2925L18.4139 27H27.0001C27.5266 26.9997 28.0437 26.8608 28.4995 26.5974C28.9553 26.334 29.3337 25.9552 29.5968 25.4992C29.8599 25.0432 29.9984 24.526 29.9983 23.9996C29.9982 23.4731 29.8596 22.9559 29.5964 22.5H29.5914ZM16.0001 4.00002C16.1759 3.99825 16.3489 4.04373 16.501 4.13168C16.6532 4.21964 16.7789 4.34685 16.8651 4.50002L21.1514 11.9063L19.3914 11.4338C19.1383 11.3744 18.8721 11.4158 18.6491 11.5494C18.4262 11.6829 18.2639 11.898 18.1968 12.1491C18.1297 12.4002 18.1629 12.6675 18.2896 12.8945C18.4162 13.1215 18.6262 13.2902 18.8751 13.365L22.9726 14.4638C23.0571 14.486 23.144 14.4973 23.2314 14.4975C23.4514 14.4973 23.6651 14.4246 23.8396 14.2906C24.0141 14.1566 24.1395 13.9688 24.1964 13.7563L25.2951 9.65752C25.3328 9.52955 25.3446 9.39532 25.3296 9.26275C25.3147 9.13018 25.2734 9.00194 25.2081 8.88558C25.1428 8.76922 25.055 8.6671 24.9496 8.58523C24.8443 8.50335 24.7236 8.44338 24.5948 8.40885C24.4659 8.37432 24.3314 8.36593 24.1993 8.38416C24.0671 8.40239 23.9399 8.44689 23.8252 8.51502C23.7105 8.58316 23.6106 8.67355 23.5314 8.78089C23.4522 8.88823 23.3952 9.01033 23.3639 9.14002L22.8889 10.9113L18.5964 3.50002C18.3328 3.04481 17.9542 2.6669 17.4985 2.40419C17.0429 2.14147 16.5261 2.00317 16.0001 2.00317C15.4741 2.00317 14.9574 2.14147 14.5017 2.40419C14.046 2.6669 13.6674 3.04481 13.4039 3.50002L10.5089 8.50002C10.3845 8.72908 10.3545 8.99766 10.4252 9.24854C10.4959 9.49942 10.6618 9.71277 10.8875 9.84314C11.1132 9.97351 11.3809 10.0106 11.6336 9.94651C11.8862 9.88242 12.1039 9.72221 12.2401 9.50002L15.1351 4.50002C15.2213 4.34685 15.3471 4.21964 15.4992 4.13168C15.6514 4.04373 15.8244 3.99825 16.0001 4.00002Z" fill="#5AB134"/>
</svg>
