<svg width="32" height="32" viewBox="0 0 32 32" fill="none" xmlns="http://www.w3.org/2000/svg">
<path d="M29.7286 15.2037C29.601 14.9796 29.4301 14.7832 29.2258 14.6259C29.0214 14.4686 28.7878 14.3535 28.5386 14.2875C27.6343 14.0547 26.6998 13.9612 25.7673 14.01C26.2673 11.5288 25.8923 9.56625 25.5098 8.4025C25.3573 7.92446 25.0323 7.52032 24.5981 7.26889C24.1639 7.01746 23.6516 6.93675 23.1611 7.0425C21.8891 7.32579 20.6796 7.83923 19.5923 8.5575C18.796 6.9308 17.6366 5.50881 16.2036 4.40125C15.8563 4.14079 15.4339 4 14.9998 4C14.5657 4 14.1433 4.14079 13.7961 4.40125C12.3627 5.50849 11.2032 6.93056 10.4073 8.5575C9.32 7.83923 8.11053 7.32579 6.83856 7.0425C6.34806 6.93675 5.83576 7.01746 5.40153 7.26889C4.9673 7.52032 4.64227 7.92446 4.48981 8.4025C4.11481 9.56625 3.73981 11.5275 4.23231 14.01C3.29983 13.9612 2.36534 14.0547 1.46106 14.2875C1.21179 14.3535 0.97818 14.4686 0.773862 14.6259C0.569544 14.7832 0.398616 14.9796 0.271059 15.2037C0.137566 15.4333 0.0511286 15.6872 0.0167903 15.9505C-0.017548 16.2138 0.00090041 16.4814 0.0710594 16.7375C0.494809 18.3087 1.79606 21.2975 5.73731 23.6525C9.67856 26.0075 13.1411 26 15.0061 26C16.8711 26 20.3398 26 24.2561 23.6525C28.1973 21.2975 29.4986 18.3087 29.9223 16.7375C29.9934 16.4818 30.0129 16.2145 29.9796 15.9511C29.9464 15.6878 29.861 15.4338 29.7286 15.2037ZM6.39231 9.0175C6.3938 9.0113 6.39761 9.0059 6.40296 9.00241C6.4083 8.99893 6.41478 8.99762 6.42106 8.99875C7.58417 9.26149 8.68178 9.75778 9.64731 10.4575C9.20768 11.8957 8.98935 13.3924 8.99981 14.8962C8.99981 17.2387 9.47106 19.1462 10.1386 20.6812C9.18962 19.7315 8.36853 18.662 7.69606 17.5C5.44356 13.5775 5.91231 10.5 6.39231 9.0175ZM6.76731 21.9363C3.43356 19.9463 2.35231 17.5062 1.99981 16.2125C2.91958 15.986 3.87401 15.9364 4.81231 16.0662C5.12556 16.9053 5.50813 17.7169 5.95606 18.4925C7.05588 20.3887 8.49676 22.0652 10.2061 23.4375C8.99738 23.09 7.83956 22.5853 6.76231 21.9363H6.76731ZM14.9998 23.8C13.8336 22.9325 10.9998 20.2712 10.9998 14.8962C10.9998 9.5875 13.7973 6.905 14.9998 6C16.2023 6.9075 18.9998 9.59 18.9998 14.8988C18.9998 20.2712 16.1661 22.9325 14.9998 23.8ZM20.3523 10.4575C21.3179 9.75822 22.4155 9.26237 23.5786 9C23.5848 8.99887 23.5913 9.00017 23.5967 9.00366C23.602 9.00715 23.6058 9.01255 23.6073 9.01875C24.0873 10.5 24.5561 13.5775 22.3036 17.5C21.6317 18.6636 20.8106 19.7343 19.8611 20.685C20.5286 19.1525 20.9998 17.2425 20.9998 14.9C21.0107 13.3949 20.7923 11.8969 20.3523 10.4575ZM27.9998 16.215C27.6536 17.4963 26.5748 19.9413 23.2386 21.9363C22.1612 22.5848 21.0034 23.0891 19.7948 23.4363C21.5041 22.0639 22.945 20.3874 24.0448 18.4912C24.4927 17.7156 24.8753 16.9041 25.1886 16.065C26.1266 15.9357 27.0807 15.9862 27.9998 16.2138V16.215Z" fill="#5AB134"/>
</svg>
