<svg width="32" height="32" viewBox="0 0 32 32" fill="none" xmlns="http://www.w3.org/2000/svg">
<path d="M19.0001 6C16.9572 6.00157 14.955 6.57142 13.2175 7.64582C11.48 8.72023 10.0756 10.2568 9.16137 12.0837C8.07382 11.9251 6.96525 11.9923 5.90481 12.2811C4.84437 12.5699 3.85481 13.0741 2.99785 13.7622C2.14089 14.4504 1.43491 15.3077 0.923954 16.2808C0.412997 17.2538 0.108019 18.3217 0.0280446 19.4179C-0.05193 20.514 0.0948138 21.6149 0.459123 22.6518C0.823432 23.6887 1.39749 24.6395 2.14549 25.4447C2.8935 26.2499 3.7994 26.8924 4.80669 27.3321C5.81398 27.7717 6.90106 27.9991 8.00012 28H19.0001C21.9175 28 24.7154 26.8411 26.7783 24.7782C28.8412 22.7153 30.0001 19.9174 30.0001 17C30.0001 14.0826 28.8412 11.2847 26.7783 9.22183C24.7154 7.15893 21.9175 6 19.0001 6ZM19.0001 26H8.00012C6.40882 26 4.8827 25.3679 3.75748 24.2426C2.63226 23.1174 2.00012 21.5913 2.00012 20C2.00012 18.4087 2.63226 16.8826 3.75748 15.7574C4.8827 14.6321 6.40882 14 8.00012 14C8.13762 14 8.27512 14 8.41137 14.0138C8.1379 14.9856 7.99951 15.9904 8.00012 17C8.00012 17.2652 8.10547 17.5196 8.29301 17.7071C8.48055 17.8946 8.7349 18 9.00012 18C9.26533 18 9.51969 17.8946 9.70722 17.7071C9.89476 17.5196 10.0001 17.2652 10.0001 17C10.0001 15.22 10.528 13.4799 11.5169 11.9999C12.5058 10.5198 13.9114 9.36627 15.556 8.68508C17.2005 8.0039 19.0101 7.82567 20.7559 8.17293C22.5018 8.5202 24.1054 9.37737 25.3641 10.636C26.6228 11.8947 27.4799 13.4984 27.8272 15.2442C28.1745 16.99 27.9962 18.7996 27.315 20.4442C26.6338 22.0887 25.4803 23.4943 24.0002 24.4832C22.5202 25.4722 20.7801 26 19.0001 26Z" fill="#5AB134"/>
</svg>
