<svg width="32" height="32" viewBox="0 0 32 32" fill="none" xmlns="http://www.w3.org/2000/svg">
<path d="M30.5999 18.8C30.4948 18.8788 30.3753 18.9361 30.2481 18.9687C30.1209 19.0013 29.9885 19.0085 29.8585 18.99C29.7285 18.9714 29.6034 18.9274 29.4904 18.8605C29.3774 18.7936 29.2787 18.7051 29.1999 18.6C28.5972 17.7898 27.8126 17.1325 26.9094 16.6809C26.0063 16.2293 25.0097 15.9961 23.9999 16C23.8032 16 23.611 15.942 23.4471 15.8333C23.2833 15.7246 23.1551 15.5699 23.0786 15.3888C23.0267 15.2657 23 15.1336 23 15C23 14.8665 23.0267 14.7343 23.0786 14.6113C23.1551 14.4301 23.2833 14.2755 23.4471 14.1668C23.611 14.058 23.8032 14 23.9999 14C24.561 14 25.1108 13.8426 25.5869 13.5457C26.063 13.2488 26.4464 12.8244 26.6934 12.3206C26.9403 11.8168 27.0411 11.2538 26.9841 10.6956C26.9272 10.1374 26.7149 9.60636 26.3713 9.1628C26.0276 8.71923 25.5665 8.38092 25.0403 8.18629C24.514 7.99166 23.9437 7.94851 23.3942 8.06175C22.8446 8.17499 22.3379 8.44007 21.9314 8.82688C21.525 9.2137 21.2352 9.70675 21.0949 10.25C21.0621 10.3772 21.0045 10.4967 20.9255 10.6017C20.8465 10.7067 20.7475 10.7951 20.6344 10.8618C20.5212 10.9285 20.396 10.9723 20.2659 10.9907C20.1358 11.0091 20.0034 11.0016 19.8761 10.9688C19.7489 10.9359 19.6294 10.8784 19.5244 10.7994C19.4195 10.7203 19.3311 10.6214 19.2644 10.5083C19.1976 10.3951 19.1538 10.2699 19.1355 10.1398C19.1171 10.0097 19.1246 9.87724 19.1574 9.75002C19.3521 8.99666 19.7199 8.29914 20.2316 7.71296C20.7433 7.12678 21.3848 6.66811 22.1049 6.37346C22.8251 6.0788 23.6041 5.9563 24.3799 6.01568C25.1558 6.07507 25.9071 6.31471 26.574 6.71553C27.2409 7.11636 27.8051 7.66731 28.2216 8.32454C28.6381 8.98178 28.8955 9.72715 28.9733 10.5014C29.0511 11.2756 28.9471 12.0573 28.6696 12.7842C28.3921 13.5112 27.9488 14.1633 27.3749 14.6888C28.7347 15.2775 29.9167 16.2118 30.8036 17.3988C30.8824 17.5041 30.9397 17.6239 30.9721 17.7514C31.0045 17.8789 31.0114 18.0115 30.9925 18.1417C30.9736 18.2718 30.9291 18.397 30.8618 18.51C30.7944 18.6229 30.7054 18.7215 30.5999 18.8ZM23.8649 26.5C23.9372 26.6138 23.9858 26.7411 24.0077 26.8742C24.0296 27.0073 24.0243 27.1434 23.9923 27.2744C23.9602 27.4054 23.9019 27.5286 23.821 27.6365C23.7401 27.7444 23.6382 27.8348 23.5214 27.9023C23.4047 27.9698 23.2754 28.0129 23.1416 28.0292C23.0077 28.0455 22.8719 28.0345 22.7424 27.9969C22.6128 27.9593 22.4922 27.8959 22.3878 27.8105C22.2834 27.7251 22.1974 27.6195 22.1349 27.5C21.5049 26.4334 20.6078 25.5494 19.5319 24.9353C18.4561 24.3212 17.2387 23.9982 15.9999 23.9982C14.7611 23.9982 13.5437 24.3212 12.4679 24.9353C11.392 25.5494 10.4948 26.4334 9.86489 27.5C9.80238 27.6195 9.71633 27.7251 9.61194 27.8105C9.50755 27.8959 9.38696 27.9593 9.25743 27.9969C9.1279 28.0345 8.99211 28.0455 8.85822 28.0292C8.72434 28.0129 8.59513 27.9698 8.47836 27.9023C8.3616 27.8348 8.25969 27.7444 8.17878 27.6365C8.09786 27.5286 8.03961 27.4054 8.00752 27.2744C7.97543 27.1434 7.97018 27.0073 7.99206 26.8742C8.01395 26.7411 8.06254 26.6138 8.13489 26.5C9.10439 24.8342 10.5826 23.5234 12.3524 22.76C11.3566 21.9976 10.6247 20.9422 10.2596 19.7423C9.89461 18.5424 9.91477 17.2583 10.3173 16.0704C10.7198 14.8825 11.4844 13.8507 12.5037 13.1199C13.523 12.389 14.7457 11.996 15.9999 11.996C17.2541 11.996 18.4768 12.389 19.4961 13.1199C20.5153 13.8507 21.28 14.8825 21.6825 16.0704C22.085 17.2583 22.1052 18.5424 21.7401 19.7423C21.3751 20.9422 20.6432 21.9976 19.6474 22.76C21.4171 23.5234 22.8954 24.8342 23.8649 26.5ZM15.9999 22C16.791 22 17.5644 21.7654 18.2222 21.3259C18.88 20.8864 19.3927 20.2617 19.6954 19.5308C19.9982 18.7998 20.0774 17.9956 19.923 17.2197C19.7687 16.4437 19.3877 15.731 18.8283 15.1716C18.2689 14.6122 17.5562 14.2312 16.7803 14.0769C16.0043 13.9225 15.2001 14.0018 14.4692 14.3045C13.7383 14.6073 13.1135 15.1199 12.674 15.7777C12.2345 16.4355 11.9999 17.2089 11.9999 18C11.9999 19.0609 12.4213 20.0783 13.1715 20.8284C13.9216 21.5786 14.939 22 15.9999 22ZM8.99989 15C8.99989 14.7348 8.89453 14.4804 8.707 14.2929C8.51946 14.1054 8.26511 14 7.99989 14C7.4388 14 6.88897 13.8426 6.41285 13.5457C5.93673 13.2488 5.55341 12.8244 5.30643 12.3206C5.05945 11.8168 4.9587 11.2538 5.01564 10.6956C5.07258 10.1374 5.28491 9.60636 5.62853 9.1628C5.97214 8.71923 6.43326 8.38092 6.95952 8.18629C7.48577 7.99166 8.05605 7.94851 8.6056 8.06175C9.15514 8.17499 9.66192 8.44007 10.0684 8.82688C10.4748 9.2137 10.7646 9.70675 10.9049 10.25C10.9712 10.5069 11.1368 10.727 11.3654 10.8618C11.594 10.9966 11.8667 11.0351 12.1236 10.9688C12.3806 10.9025 12.6006 10.7368 12.7354 10.5083C12.8702 10.2797 12.9087 10.0069 12.8424 9.75002C12.6477 8.99666 12.2799 8.29914 11.7682 7.71296C11.2564 7.12678 10.615 6.66811 9.89483 6.37346C9.17467 6.0788 8.39568 5.9563 7.61984 6.01568C6.844 6.07507 6.09273 6.31471 5.4258 6.71553C4.75887 7.11636 4.1947 7.66731 3.77817 8.32454C3.36164 8.98178 3.10425 9.72715 3.02648 10.5014C2.94871 11.2756 3.05271 12.0573 3.3302 12.7842C3.60769 13.5112 4.05101 14.1633 4.62489 14.6888C3.26649 15.2781 2.08578 16.2123 1.19989 17.3988C1.0406 17.6109 0.972109 17.8777 1.0095 18.1404C1.04689 18.403 1.18709 18.6401 1.39927 18.7994C1.61144 18.9587 1.8782 19.0272 2.14087 18.9898C2.40354 18.9524 2.6406 18.8122 2.79989 18.6C3.40262 17.7898 4.18716 17.1325 5.09034 16.6809C5.99352 16.2293 6.99011 15.9961 7.99989 16C8.26511 16 8.51946 15.8947 8.707 15.7071C8.89453 15.5196 8.99989 15.2652 8.99989 15Z" fill="#5AB134"/>
</svg>
