<svg width="556" height="83" viewBox="0 0 556 83" fill="none" xmlns="http://www.w3.org/2000/svg">
<path d="M32.4797 0.759838C33.0789 0.755277 33.0789 0.755277 33.6873 0.746155C42.2798 0.668616 50.5983 0.650372 58.9865 2.69374C59.5299 2.82145 59.5299 2.82145 60.0826 2.95372C69.5158 5.23883 78.3405 9.53082 85.9252 15.4648C86.2457 15.7065 86.5615 15.9483 86.8913 16.1991C87.5183 16.6872 88.1221 17.2117 88.7119 17.7454C88.7119 18.0464 88.7119 18.3474 88.7119 18.6576C89.0185 18.6576 89.325 18.6576 89.6409 18.6576C101.615 29.7502 105.804 46.4301 106.361 61.988C106.566 69.0075 106.152 76.0407 104.968 82.969C104.355 82.969 103.742 82.969 103.11 82.969C103.064 82.4718 103.064 82.4718 103.017 81.961C101.912 70.093 100.142 58.6356 94.7499 47.8486C94.5177 47.3697 94.2901 46.8953 94.0486 46.4027C92.7713 43.812 91.3919 41.4083 89.6873 39.0639C89.1764 38.2703 89.1764 38.2703 89.1764 37.3581C88.8699 37.3581 88.5633 37.3581 88.2475 37.3581C87.639 36.6785 87.0631 35.9669 86.5058 35.2463C85.3678 33.8095 84.2438 32.4594 82.9062 31.2006C82.5253 30.822 82.1398 30.448 81.745 30.0603C81.745 29.7593 81.745 29.4582 81.745 29.1481C81.4106 29.0341 81.0762 28.9155 80.7325 28.7969C79.3159 28.1903 78.243 27.4468 77.0122 26.5255C66.0323 18.5892 52.563 14.475 39.0147 13.6404C39.5024 13.7726 39.9947 13.9049 40.4963 14.0417C46.9152 15.8206 52.9485 18.1513 58.9865 20.9381C58.9865 21.2392 58.9865 21.5402 58.9865 21.8503C59.2466 21.8959 59.502 21.9416 59.7668 21.9917C71.8335 25.5083 82.0237 40.4459 87.783 50.5852C90.593 55.7393 93.2962 61.6641 94.2855 67.4613C92.3208 68.7429 90.3283 69.459 88.1035 70.1706C87.5508 70.3439 87.5508 70.3439 86.9888 70.5263C74.2997 74.5401 60.4031 76.6336 47.8394 71.1102C43.6686 68.9391 40.0644 66.1386 36.6924 62.9002C36.423 62.6539 36.149 62.4076 35.8703 62.1567C35.299 61.5319 35.299 61.5319 35.299 60.6196C34.9925 60.6196 34.6859 60.6196 34.3701 60.6196C33.7709 59.9537 33.7709 59.9537 33.1532 59.078C32.9442 58.7952 32.7352 58.5078 32.5215 58.2114C32.0478 57.4269 32.0478 57.4269 32.0478 56.5147C31.7412 56.5147 31.4347 56.5147 31.1189 56.5147C30.6033 55.8624 30.6033 55.8624 30.0413 54.9411C29.8323 54.6036 29.6233 54.266 29.4096 53.9194C29.1867 53.5545 28.9684 53.1851 28.7408 52.8065C28.5086 52.437 28.281 52.063 28.0488 51.6799C24.7139 46.2111 21.5185 40.6694 18.5041 35.0273C18.1418 34.3477 17.7795 33.6727 17.4173 32.9977C17.2408 32.6601 17.0596 32.3272 16.8785 31.9851C15.6663 29.7365 14.389 27.5471 13.0049 25.3989C12.5404 24.587 12.5404 24.587 12.5404 23.6748C12.2339 23.6748 11.9273 23.6748 11.6115 23.6748C10.808 22.7078 10.808 22.7078 9.93017 21.449C9.63291 21.0385 9.3403 20.6234 9.0384 20.1992C8.36029 19.1137 8.36029 19.1137 8.36029 18.2015C8.05374 18.2015 7.7472 18.2015 7.43137 18.2015C6.7579 17.531 6.7579 17.531 5.98225 16.6051C4.48669 14.8673 2.89823 13.2983 1.2076 11.7521C0.371568 10.7942 0.0139338 10.3473 0 9.07927C0.715269 7.63341 1.48163 6.95837 2.97719 6.31981C4.36593 5.85458 5.75931 5.44864 7.17127 5.06095C7.64966 4.915 8.1327 4.7736 8.62968 4.62765C10.7708 4.0119 12.6147 3.5193 14.8627 3.60596C14.8627 3.30493 14.8627 3.0039 14.8627 2.69374C15.1693 2.67094 15.4712 2.64813 15.7824 2.62533C19.4841 2.32885 23.1208 1.79521 26.7622 1.08824C28.6758 0.819133 30.5476 0.778083 32.4797 0.759838Z" fill="#5AB134"/>
<path d="M122.887 16.7286C123.918 16.7065 124.949 16.6889 125.985 16.6757C126.845 16.6581 126.845 16.6581 127.724 16.6404C129.192 16.7286 129.192 16.7286 130.092 17.6099C130.399 18.3943 130.399 18.3943 130.678 19.3462C130.781 19.6987 130.885 20.0513 130.993 20.417C131.106 20.8004 131.218 21.1838 131.331 21.576C132.223 24.5726 133.15 27.5472 134.173 30.4997C135.064 33.082 135.947 35.6688 136.794 38.2688C136.938 38.7051 136.938 38.7051 137.087 39.1502C137.55 40.5823 137.749 41.64 137.749 43.1691C138.046 43.1691 138.343 43.1691 138.649 43.1691C138.649 42.843 138.649 42.5213 138.645 42.1864C138.636 39.1325 138.631 36.0742 138.627 33.0204C138.622 31.4515 138.622 29.8827 138.613 28.3095C138.609 26.5072 138.609 24.7048 138.604 22.898C138.604 22.334 138.6 21.7655 138.6 21.1838C138.6 20.6638 138.6 20.1438 138.6 19.6062C138.595 19.1435 138.595 18.6852 138.595 18.2092C138.649 17.1693 138.649 17.1693 139.1 16.7286C139.775 16.6845 140.451 16.6713 141.126 16.6757C141.491 16.6713 141.86 16.6713 142.239 16.6713C143.153 16.7286 143.153 16.7286 143.603 17.1693C143.648 18.4692 143.662 19.7604 143.653 21.0604C143.653 21.4702 143.653 21.8801 143.653 22.2987C143.653 23.656 143.653 25.0133 143.648 26.3706C143.648 27.3092 143.644 28.2478 143.644 29.1821C143.644 31.6587 143.639 34.1309 143.635 36.6075C143.63 39.1281 143.626 41.6532 143.626 44.1739C143.621 49.127 143.612 54.0802 143.603 59.0334C141.82 59.0334 140.036 59.0334 138.199 59.0334C137.069 56.9843 136.357 54.9792 135.722 52.7538C135.528 52.0884 135.33 51.4186 135.136 50.7531C135.042 50.4314 134.947 50.1142 134.853 49.7837C134.529 48.6687 134.2 47.5582 133.866 46.4477C133.776 46.1481 133.686 45.844 133.592 45.5355C133.295 44.641 132.961 43.764 132.619 42.8871C131.804 40.7895 131.16 38.6522 130.516 36.5061C130.286 35.7393 130.052 34.977 129.822 34.2146C129.723 33.8797 129.624 33.5492 129.52 33.2054C129.133 31.9671 128.71 30.7377 128.291 29.5082C128.286 29.8695 128.282 30.2353 128.277 30.6099C128.232 34.0251 128.187 37.4447 128.138 40.86C128.115 42.6183 128.088 44.3766 128.066 46.1349C128.048 47.8271 128.021 49.5237 127.998 51.2158C127.989 51.8636 127.98 52.5114 127.971 53.1592C127.962 54.0626 127.949 54.9704 127.935 55.8738C127.926 56.3894 127.917 56.905 127.913 57.4338C127.841 58.5928 127.841 58.5928 127.39 59.0334C126.643 59.0775 125.891 59.0907 125.138 59.0863C124.526 59.0907 124.526 59.0907 123.9 59.0907C122.887 59.0334 122.887 59.0334 122.436 58.5928C122.391 57.3236 122.373 56.0633 122.378 54.7941C122.378 54.3975 122.378 53.9965 122.378 53.5867C122.373 52.2647 122.373 50.9382 122.378 49.6162C122.378 48.6996 122.378 47.783 122.373 46.8664C122.373 44.945 122.373 43.0193 122.378 41.0979C122.382 38.6302 122.378 36.158 122.378 33.6902C122.373 31.7953 122.373 29.9048 122.378 28.0099C122.378 27.1021 122.378 26.1899 122.373 25.2777C122.373 24.0085 122.378 22.735 122.378 21.4658C122.378 21.0869 122.378 20.7079 122.373 20.3157C122.387 17.7113 122.387 17.7113 122.887 16.7286Z" fill="#5AB134"/>
<path d="M384.927 16.6404C385.471 16.6404 386.011 16.6449 386.574 16.6449C387.386 16.6404 387.386 16.6404 388.212 16.6404C389.6 16.6978 389.6 16.6978 390.523 17.1394C390.952 18.2213 390.952 18.2213 391.386 19.6521C391.547 20.1688 391.709 20.6898 391.87 21.2242C392.359 22.8492 392.839 24.4787 393.319 26.1126C393.877 27.9938 394.486 29.8131 395.238 31.6325C395.736 32.9661 396.119 34.3218 396.521 35.6863C397.383 39.4708 397.383 39.4708 399.289 42.7518C399.289 42.4383 399.284 42.1247 399.284 41.8024C399.275 38.8525 399.27 35.9027 399.266 32.9529C399.261 31.4382 399.256 29.9191 399.252 28.4045C399.247 26.6602 399.247 24.9159 399.243 23.176C399.243 22.6284 399.238 22.0809 399.238 21.52C399.238 21.0166 399.238 20.5132 399.238 19.9921C399.233 19.5461 399.233 19.1045 399.233 18.6453C399.289 17.581 399.289 17.581 399.75 16.6978C401.273 16.6978 402.795 16.6978 404.364 16.6978C404.364 30.6875 404.364 44.6771 404.364 59.0907C402.537 59.0907 400.71 59.0907 398.827 59.0907C397.623 56.5516 396.724 53.9682 395.856 51.3099C395.713 50.8771 395.575 50.4443 395.427 49.9983C395.021 48.7619 394.615 47.5254 394.214 46.2845C394.029 45.7193 393.845 45.1585 393.66 44.5932C392.871 42.1777 392.133 39.7534 391.418 37.3158C390.763 35.099 390.025 32.9705 389.139 30.8288C388.987 30.3916 388.834 29.9545 388.678 29.504C388.525 39.2676 388.373 49.0312 388.216 59.0907C386.541 59.0907 384.867 59.0907 383.141 59.0907C383.132 53.6282 383.123 48.1657 383.118 42.7076C383.114 40.1685 383.109 37.6337 383.104 35.099C383.1 32.6526 383.1 30.2062 383.095 27.7597C383.095 26.828 383.095 25.8918 383.091 24.9556C383.091 23.6529 383.086 22.3458 383.091 21.0431C383.086 20.6501 383.086 20.2615 383.081 19.8597C383.091 16.7199 383.091 16.7199 384.927 16.6404Z" fill="#5AB134"/>
<path d="M230.894 16.7359C231.455 16.7271 232.016 16.7183 232.591 16.7095C236.227 16.6919 238.649 16.8107 241.525 19.1544C243.907 22.0479 244.057 24.6643 244.013 28.2789C244.017 28.7011 244.022 29.1232 244.026 29.5586C244.013 33.5206 242.975 35.8951 240.31 38.8326C240.65 39.1316 240.986 39.4306 241.331 39.7384C244.455 43.1332 244.393 47.0776 244.534 51.4265C244.565 52.328 244.601 53.2295 244.632 54.1353C244.654 54.7026 244.671 55.2654 244.693 55.8503C244.711 56.3692 244.729 56.8924 244.746 57.4289C244.729 58.6206 244.729 58.6206 244.287 59.0603C243.469 59.0911 242.648 59.0955 241.83 59.0867C241.384 59.0823 240.937 59.0779 240.474 59.0779C240.129 59.0691 239.784 59.0647 239.426 59.0603C238.463 57.5037 238.419 56.2109 238.392 54.4035C238.379 53.8407 238.366 53.2778 238.353 52.7018C238.335 51.8091 238.322 50.9209 238.308 50.0326C238.295 49.1707 238.273 48.3088 238.255 47.4469C238.246 46.9369 238.238 46.4224 238.229 45.8903C238.105 44.5887 237.973 43.8499 237.217 42.7902C234.349 41.3874 233.231 41.471 229.705 41.471C229.705 47.2755 229.705 53.0799 229.705 59.0603C228.101 59.0603 226.497 59.0603 224.845 59.0603C223.996 56.9452 223.842 55.8195 223.815 53.5944C223.811 53.2734 223.802 52.9524 223.797 52.6226C223.784 51.5629 223.771 50.5031 223.762 49.4433C223.753 48.7002 223.744 47.957 223.735 47.2139C223.713 45.6572 223.696 44.1006 223.682 42.5439C223.665 40.5607 223.638 38.5819 223.612 36.6031C223.59 35.0684 223.572 33.5338 223.554 31.9991C223.545 31.2691 223.537 30.5392 223.528 29.8092C223.409 20.3505 223.409 20.3505 223.961 17.2856C225.958 16.2918 228.702 16.7447 230.894 16.7359ZM229.705 22.1227C229.665 23.1692 229.657 24.1982 229.661 25.2448C229.665 25.557 229.665 25.8692 229.665 26.1902C229.665 27.1884 229.674 28.1866 229.679 29.1848C229.683 29.862 229.683 30.5392 229.683 31.212C229.687 32.8742 229.696 34.532 229.705 36.1941C230.699 36.2161 231.694 36.2337 232.688 36.2513C233.245 36.2601 233.797 36.2689 234.367 36.2821C235.79 36.1985 236.514 36.1194 237.659 35.3147C238.971 33.3579 238.706 31.5154 238.71 29.2156C238.719 28.7758 238.733 28.3405 238.741 27.8876C238.75 25.9132 238.75 24.6731 237.734 22.945C236.139 21.5774 234.769 21.6214 232.745 21.6258C232.029 21.6258 232.029 21.6258 231.305 21.6258C230.182 21.551 230.182 21.551 229.705 22.1227Z" fill="#5AB134"/>
<path d="M514.854 16.78C515.432 16.7713 516.014 16.7625 516.611 16.7538C520.152 16.7407 523.116 16.7669 526.061 18.8416C529.405 22.6679 529.474 26.9441 529.373 31.7401C529.369 32.3166 529.359 32.8932 529.35 33.4872C529.332 34.6971 529.309 35.9114 529.286 37.1213C529.249 38.6632 529.231 40.2094 529.217 41.7513C529.203 43.2364 529.171 44.7258 529.144 46.2109C529.139 47.0321 529.139 47.0321 529.13 47.8751C529.038 51.4131 528.772 54.309 526.208 57.0171C523.006 59.5286 519.161 59.1137 515.258 58.9826C514.565 58.9695 513.877 58.9608 513.189 58.9477C511.519 58.9215 509.844 58.8734 508.174 58.821C508.161 53.4179 508.156 48.0148 508.152 42.6118C508.147 40.1046 508.142 37.5974 508.138 35.0859C508.133 32.6704 508.133 30.2506 508.129 27.8308C508.129 26.9048 508.129 25.9832 508.124 25.0572C508.119 23.7643 508.119 22.4757 508.119 21.1828C508.119 20.7985 508.119 20.4097 508.115 20.0122C508.124 15.5832 510.817 16.7975 514.854 16.78ZM514.138 21.6939C513.459 22.9824 513.643 24.1137 513.67 25.5551C513.675 25.8609 513.675 26.1666 513.679 26.4855C513.698 27.4988 513.716 28.5165 513.734 29.5343C513.744 30.2375 513.757 30.9407 513.767 31.644C513.794 33.4959 513.826 35.3523 513.858 37.2043C513.89 39.0956 513.923 40.9869 513.95 42.8782C514.01 46.5909 514.074 50.3036 514.138 54.0163C515.248 54.0644 516.354 54.0993 517.464 54.1255C517.776 54.1386 518.088 54.1561 518.409 54.1692C520.015 54.1998 520.845 54.143 522.13 53.1908C523.336 51.6577 523.373 50.7492 523.391 48.8447C523.4 48.3119 523.405 47.7746 523.409 47.2243C523.414 46.639 523.419 46.0493 523.423 45.464C523.423 45.167 523.423 44.8743 523.428 44.5686C523.437 43.0049 523.442 41.4412 523.446 39.8774C523.451 38.2657 523.469 36.6539 523.487 35.0422C523.497 33.8017 523.501 32.5569 523.506 31.3164C523.506 30.7223 523.51 30.1283 523.52 29.5343C523.533 28.7 523.529 27.8657 523.529 27.0358C523.529 26.5597 523.533 26.088 523.538 25.5988C523.258 24.0089 522.643 23.2794 521.478 22.1307C519.978 21.5104 518.391 21.6502 516.776 21.6677C516.281 21.672 515.785 21.6764 515.276 21.6764C514.712 21.6851 514.712 21.6851 514.138 21.6939Z" fill="#5AB134"/>
<path d="M372.597 14.6787C375.011 16.0738 376.062 18.1426 377.122 20.9853C377.324 21.4583 377.324 21.4583 377.526 21.9408C377.574 22.9155 377.595 23.8901 377.603 24.8648C377.611 25.4811 377.619 26.0974 377.623 26.7329C377.627 27.4065 377.635 28.085 377.635 28.7634C377.639 29.1026 377.643 29.4418 377.643 29.7954C377.655 31.6013 377.663 33.4121 377.667 35.2228C377.671 36.7087 377.684 38.1993 377.7 39.69C377.72 41.496 377.732 43.2972 377.732 45.1031C377.736 45.7863 377.744 46.4695 377.752 47.1575C377.809 51.338 377.635 54.7732 375.504 58.2514C373.491 60.5638 371.271 61.4381 368.481 61.7439C366.148 61.505 364.11 60.7405 362.161 59.2069C362.161 58.8916 362.161 58.5762 362.161 58.2514C361.894 58.2514 361.627 58.2514 361.352 58.2514C361.089 57.6446 360.83 57.033 360.568 56.4263C360.422 56.0918 360.276 55.7526 360.127 55.4038C359.387 53.5597 359.274 52.112 359.258 50.091C359.253 49.4938 359.249 48.8966 359.245 48.2803C359.241 47.6258 359.237 46.9712 359.233 46.3167C359.233 45.987 359.229 45.6526 359.229 45.3133C359.221 43.5599 359.217 41.8113 359.213 40.0579C359.209 38.2567 359.193 36.4555 359.177 34.6543C359.165 33.264 359.165 31.8737 359.161 30.4786C359.161 29.8145 359.156 29.1552 359.148 28.4911C359.104 24.3201 359.108 20.3976 361.667 17.2252C364.777 13.8761 368.562 13.3123 372.597 14.6787ZM365.396 20.5075C364.195 22.6336 364.134 24.5303 364.118 27.0434C364.114 27.5785 364.11 28.1136 364.106 28.6631C364.106 29.2364 364.102 29.8097 364.102 30.4021C364.098 30.9946 364.098 31.587 364.094 32.1986C364.089 33.4503 364.089 34.7068 364.085 35.9586C364.085 37.239 364.077 38.5242 364.069 39.8047C364.057 41.6584 364.053 43.5074 364.049 45.3611C364.045 45.9297 364.041 46.503 364.037 47.0906C364.041 50.0624 364.138 52.3031 365.396 54.907C366.722 56.1922 368.19 56.0297 369.843 55.8625C371.117 55.2271 371.699 54.8257 372.318 53.359C372.714 51.897 372.779 50.7121 372.787 49.1833C372.791 48.6147 372.795 48.051 372.795 47.4681C372.795 46.5603 372.795 46.5603 372.795 45.6334C372.799 45.0076 372.799 44.3817 372.803 43.7367C372.803 42.4133 372.803 41.0899 372.803 39.7664C372.799 38.0751 372.807 36.3886 372.815 34.6973C372.823 33.0777 372.823 31.458 372.819 29.8384C372.827 28.9306 372.827 28.9306 372.831 28.0037C372.827 27.1581 372.827 27.1581 372.823 26.2885C372.823 25.7964 372.823 25.2996 372.827 24.7883C372.617 22.8295 372.096 21.0952 370.753 19.8482C368.889 19.2367 367.017 19.1554 365.396 20.5075Z" fill="#5AB134"/>
<path d="M199.633 16.7311C200.322 16.7084 201.006 16.6903 201.695 16.6767C202.077 16.6631 202.46 16.654 202.857 16.6404C203.938 16.7311 203.938 16.7311 205.373 17.6377C205.521 18.7664 205.574 19.7818 205.564 20.9105C205.569 21.2459 205.569 21.5814 205.574 21.9304C205.583 23.0455 205.583 24.1651 205.583 25.2802C205.588 26.0554 205.598 26.835 205.602 27.6102C205.622 29.6545 205.631 31.7034 205.636 33.7478C205.65 37.0206 205.669 40.2888 205.693 43.5616C205.703 44.7039 205.703 45.8462 205.708 46.984C205.713 47.6911 205.717 48.3937 205.722 49.0963C205.722 49.4091 205.717 49.7264 205.717 50.0528C205.736 51.8297 205.904 53.2395 206.808 54.8079C208.324 55.7643 209.262 55.864 211.051 55.9683C212.701 55.5558 213.394 54.6855 214.461 53.448C214.696 52.1923 214.786 51.2132 214.767 49.9576C214.777 49.4454 214.777 49.4454 214.782 48.9196C214.791 47.7863 214.786 46.6576 214.782 45.5244C214.786 44.7357 214.796 43.9515 214.801 43.1627C214.815 41.0912 214.82 39.0241 214.82 36.9571C214.82 34.0334 214.839 31.1141 214.858 28.1904C214.868 26.6356 214.873 25.0808 214.873 23.526C214.877 22.8188 214.877 22.1117 214.877 21.4046C214.877 21.0782 214.877 20.7564 214.877 20.4209C214.887 18.1952 214.887 18.1952 215.418 17.1844C216.207 17.1708 216.992 17.1617 217.781 17.1572C218.436 17.1481 218.436 17.1481 219.106 17.1391C220.201 17.1844 220.201 17.1844 220.679 17.6377C220.732 18.712 220.751 19.7682 220.751 20.8425C220.751 21.1779 220.751 21.5134 220.756 21.8579C220.756 22.973 220.761 24.0881 220.761 25.2077C220.761 25.9783 220.761 26.7534 220.766 27.5286C220.766 29.1559 220.77 30.7832 220.77 32.4106C220.77 34.4912 220.775 36.5718 220.785 38.6524C220.789 40.2526 220.789 41.8527 220.789 43.4574C220.789 44.2234 220.789 44.9895 220.794 45.7556C220.799 46.8299 220.799 47.9087 220.794 48.983C220.799 49.3003 220.799 49.6131 220.804 49.9349C220.78 53.7834 219.594 57.1967 216.705 59.9346C213.949 61.571 210.95 62.0016 207.765 61.6073C204.722 60.8548 202.948 59.5448 201.159 57.1197C199.776 54.8124 199.499 52.8632 199.523 50.2341C199.523 49.8669 199.523 49.5043 199.523 49.1326C199.523 47.9359 199.532 46.7437 199.537 45.547C199.542 44.7175 199.542 43.888 199.542 43.0585C199.547 40.8781 199.556 38.6978 199.566 36.5129C199.576 34.2872 199.58 32.0615 199.585 29.8313C199.595 25.4661 199.614 21.0963 199.633 16.7311Z" fill="#5AB134"/>
<path d="M491.049 13.9873C491.198 14.2907 491.347 14.5942 491.501 14.9068C492.395 14.9068 493.29 14.9068 494.211 14.9068C494.432 15.362 494.432 15.362 494.663 15.8264C494.514 16.2815 494.365 16.7367 494.211 17.2057C494.509 17.2057 494.807 17.2057 495.115 17.2057C496.696 25.0953 498.186 33.0034 499.659 40.916C499.804 41.7068 499.953 42.5022 500.102 43.293C500.17 43.6792 500.242 44.0654 500.319 44.4608C500.698 46.5068 501.091 48.5482 501.502 50.585C501.624 51.2149 501.624 51.2149 501.755 51.8585C501.913 52.6585 502.076 53.4585 502.243 54.2585C502.315 54.6172 502.388 54.9804 502.46 55.3482C502.528 55.6654 502.591 55.9781 502.659 56.3045C502.794 57.2057 502.794 57.2057 502.794 59.0447C501.9 59.0585 501.005 59.0677 500.111 59.0723C499.614 59.0769 499.117 59.0861 498.602 59.0907C497.373 59.0447 497.373 59.0447 496.922 58.585C496.669 57.2746 496.434 55.9643 496.217 54.6493C496 53.3666 495.788 52.0884 495.566 50.7689C492.287 50.7689 489.007 50.7689 485.628 50.7689C485.032 53.4999 484.435 56.2309 483.821 59.0447C482.181 59.0447 480.541 59.0447 478.852 59.0447C479.087 54.5344 479.9 50.2815 480.799 45.8769C481.445 42.6723 482.05 39.4631 482.664 36.2585C482.732 35.9045 482.8 35.5459 482.868 35.1827C483.798 30.3229 484.711 25.4632 485.601 20.5988C485.696 20.0746 485.791 19.5551 485.89 19.0218C485.976 18.5482 486.062 18.0747 486.147 17.5919C486.224 17.1781 486.296 16.7689 486.373 16.3459C486.554 15.3804 486.554 15.3804 486.531 14.4471C488.022 14.2953 489.513 14.1436 491.049 13.9873ZM490.145 23.1827C488.632 30.6677 487.313 38.1758 486.08 45.7114C488.912 45.7114 491.745 45.7114 494.663 45.7114C493.868 38.0792 492.237 30.6631 490.597 23.1827C490.448 23.1827 490.299 23.1827 490.145 23.1827Z" fill="#5AB134"/>
<path d="M157.545 16.7417C158.804 16.6449 159.958 16.6186 161.207 16.6581C161.55 16.6669 161.888 16.6713 162.24 16.6757C163.079 16.6933 163.923 16.7153 164.761 16.7417C165.875 20.8319 166.813 24.9089 167.54 29.0827C168.636 35.4159 169.871 41.7271 171.161 48.0208C171.229 48.3638 171.301 48.7025 171.373 49.0543C171.784 51.0379 172.226 53.0126 172.704 54.9829C172.965 56.3287 172.938 57.5954 172.88 58.9632C172.072 58.9984 171.265 59.0247 170.453 59.0467C169.781 59.0687 169.781 59.0687 169.091 59.0907C168.703 59.0511 168.315 59.0072 167.918 58.9632C166.994 57.613 166.786 56.8477 166.511 55.2776C166.435 54.8686 166.358 54.4552 166.281 54.0329C166.114 52.8059 166.114 52.8059 166.114 50.6068C162.691 50.6068 159.268 50.6068 155.741 50.6068C155.48 52.7003 155.48 52.7003 155.227 54.7894C155.015 56.4299 154.708 57.4546 153.937 58.9632C152.3 58.9632 150.663 58.9632 148.976 58.9632C149.589 54.9038 150.307 50.8707 151.091 46.8421C151.209 46.2352 151.326 45.6326 151.439 45.0301C152.093 41.6568 152.76 38.2878 153.432 34.9189C153.504 34.5671 153.572 34.2152 153.644 33.8502C153.987 32.1393 154.33 30.4285 154.677 28.7176C154.803 28.0887 154.929 27.4554 155.056 26.8221C155.119 26.523 155.177 26.2195 155.241 25.9117C155.692 23.6467 156.075 21.3729 156.409 19.0859C156.643 18.0611 156.643 18.0611 157.545 16.7417ZM160.251 25.098C160.206 25.3575 160.161 25.6126 160.116 25.8809C159.196 31.1058 158.258 36.3219 157.193 41.5248C157.121 41.8811 157.049 42.2417 156.972 42.6111C156.909 42.9278 156.846 43.2401 156.779 43.5611C156.598 44.5903 156.598 44.5903 156.643 46.2088C159.322 46.2088 162.001 46.2088 164.761 46.2088C165.442 44.8806 165.005 43.9174 164.712 42.4792C164.653 42.1889 164.599 41.9031 164.536 41.6084C164.351 40.6848 164.162 39.7656 163.972 38.842C163.85 38.2395 163.729 37.6413 163.611 37.0388C163.309 35.5522 163.002 34.0657 162.691 32.5835C162.506 31.6863 162.326 30.7891 162.146 29.8919C162.028 29.3334 161.916 28.7748 161.794 28.1987C161.695 27.6973 161.591 27.1915 161.487 26.6769C161.32 26.114 161.32 26.114 161.153 25.5378C160.856 25.3927 160.558 25.2476 160.251 25.098Z" fill="#5AB134"/>
<path d="M542.206 16.6404C542.829 16.6449 543.457 16.6581 544.08 16.6713C544.396 16.6757 544.716 16.6801 545.046 16.6845C545.831 16.6933 546.621 16.711 547.407 16.7286C548.409 19.1357 549.037 21.3532 549.411 23.919C549.84 26.6303 550.337 29.3107 550.937 31.9911C551.935 36.4879 552.788 41.0111 553.642 45.5387C554.274 48.8848 554.96 52.2089 555.736 55.5242C555.967 56.7365 556.034 57.821 555.985 59.051C555.091 59.0599 554.201 59.0687 553.308 59.0775C552.806 59.0819 552.31 59.0863 551.8 59.0907C550.567 59.051 550.567 59.051 550.116 58.6102C549.863 57.3493 549.628 56.0973 549.411 54.832C549.199 53.6064 548.983 52.3764 548.761 51.1156C545.484 51.1156 542.206 51.1156 538.829 51.1156C538.233 53.7343 537.637 56.353 537.023 59.051C535.385 59.051 533.746 59.051 532.057 59.051C532.256 55.8284 532.68 52.8746 533.466 49.7489C533.981 47.6108 534.337 45.4506 534.712 43.2903C535.43 39.1595 536.229 35.0507 537.087 30.9419C537.561 28.6803 538.017 26.4143 538.441 24.1439C538.522 23.7162 538.604 23.2886 538.685 22.8433C538.834 22.0366 538.983 21.2254 539.127 20.4186C539.195 20.0571 539.263 19.7 539.33 19.3341C539.385 19.0211 539.443 18.7081 539.502 18.3818C539.976 16.8036 540.581 16.7286 542.206 16.6404ZM543.344 24.6641C543.272 25.0564 543.195 25.4532 543.118 25.8588C542.834 27.3577 542.549 28.8522 542.26 30.3511C542.138 30.9904 542.017 31.634 541.895 32.2777C541.168 36.1088 540.4 39.9222 539.529 43.7224C539.24 44.9524 539.24 44.9524 539.281 46.2661C542.111 46.2661 544.942 46.2661 547.858 46.2661C547.579 42.7481 546.965 39.3314 546.265 35.8795C546.084 34.9669 545.899 34.0544 545.719 33.1418C545.15 30.2938 544.563 27.4635 543.795 24.6641C543.646 24.6641 543.497 24.6641 543.344 24.6641Z" fill="#5AB134"/>
<path d="M305.353 16.6404C305.983 16.6449 306.618 16.6493 307.248 16.6581C307.57 16.6581 307.896 16.6581 308.227 16.6625C309.025 16.6669 309.823 16.6758 310.621 16.6846C311.877 19.2051 312.389 21.5931 312.833 24.3519C313.472 28.1481 314.175 31.9222 314.955 35.6918C315.1 36.3937 315.1 36.3937 315.25 37.1088C315.748 39.5012 316.261 41.8893 316.8 44.2729C317.888 49.1593 318.826 54.0678 319.234 59.0602C317.439 59.0602 315.644 59.0602 313.794 59.0602C313.196 56.4382 312.598 53.8162 311.981 51.1148C308.69 50.9691 305.398 50.8234 302.007 50.6734C301.858 51.9844 301.708 53.2954 301.554 54.6461C301.418 55.3832 301.273 56.1204 301.101 56.8531C301.028 57.1798 300.951 57.5064 300.874 57.8463C300.647 58.6188 300.647 58.6188 300.194 59.0602C299.432 59.0911 298.666 59.0955 297.9 59.0867C297.275 59.0823 297.275 59.0823 296.635 59.0735C296.313 59.069 295.992 59.0646 295.661 59.0602C295.185 57.6653 295.221 57.1754 295.479 55.7717C295.552 55.3744 295.624 54.9771 295.697 54.571C295.779 54.1385 295.86 53.7103 295.946 53.2645C296.028 52.8186 296.109 52.3728 296.196 51.9093C297.356 45.6766 298.621 39.4527 300.026 33.264C300.543 30.9643 300.947 28.6601 301.327 26.3383C302.919 16.7111 302.919 16.7111 305.353 16.6404ZM306.994 24.63C305.974 28.3997 305.126 32.1958 304.369 36.0273C304.188 36.941 304.002 37.8547 303.816 38.7729C303.698 39.3644 303.581 39.9515 303.463 40.5429C303.358 41.0682 303.25 41.5935 303.141 42.1364C302.846 43.7962 302.846 43.7962 302.914 46.2592C305.757 46.2592 308.599 46.2592 311.528 46.2592C310.997 42.5867 310.308 38.9936 309.506 35.3696C308.721 31.8074 308.073 28.2231 307.448 24.63C307.298 24.63 307.148 24.63 306.994 24.63Z" fill="#5AB134"/>
<path d="M448.052 15.7635C450.178 17.5966 451.434 19.6499 452.089 22.4642C452.313 25.0104 452.264 27.5758 452.089 30.122C451.64 30.6006 451.64 30.6006 450.613 30.6485C450.205 30.6437 449.792 30.6341 449.371 30.6294C448.958 30.6246 448.545 30.6198 448.119 30.6198C447.801 30.6102 447.482 30.6054 447.155 30.6006C447.101 30.0694 447.047 29.5381 446.989 28.9925C446.913 28.2937 446.837 27.5901 446.76 26.8914C446.729 26.542 446.693 26.1926 446.657 25.8336C446.393 23.2874 446.393 23.2874 445.361 21.0283C443.715 19.8557 442.342 19.7265 440.427 20.0711C439.337 20.9661 438.795 21.6409 438.185 22.9428C438.135 23.8713 438.117 24.8046 438.113 25.7379C438.108 26.3218 438.104 26.9105 438.099 27.5136C438.095 28.1549 438.095 28.801 438.095 29.4424C438.091 30.1029 438.091 30.7586 438.086 31.4191C438.082 32.7975 438.077 34.1807 438.077 35.5639C438.073 37.33 438.064 39.0961 438.05 40.8622C438.041 42.2214 438.041 43.5855 438.041 44.9448C438.037 45.5957 438.037 46.2466 438.028 46.8975C438.023 47.8117 438.023 48.7258 438.023 49.6352C438.023 50.1569 438.023 50.6738 438.019 51.2098C438.207 52.8132 438.633 53.713 439.53 55.0101C440.965 55.7758 442.455 55.6658 444.015 55.4887C445.128 55.0579 445.128 55.0579 445.809 54.0528C446.608 51.5736 446.881 49.2714 446.985 46.663C447.003 46.3136 447.02 45.9642 447.038 45.6053C447.083 44.7485 447.119 43.8966 447.155 43.0447C450.487 42.9059 450.487 42.9059 452.089 44.0019C452.452 54.541 452.452 54.541 449.259 58.7815C446.653 60.9784 443.742 61.9404 440.427 61.7107C438.149 61.0837 436.305 60.1265 434.597 58.3604C434.597 58.0445 434.597 57.7286 434.597 57.4031C434.301 57.4031 434.005 57.4031 433.7 57.4031C432.758 55.0053 432.193 52.952 432.045 50.3531C431.941 49.2236 431.941 49.2236 431.448 48.0701C430.86 45.835 430.946 43.8104 431.017 41.5083C431.035 40.8143 431.035 40.8143 431.053 40.106C431.089 38.6318 431.134 37.1577 431.179 35.6835C431.201 34.6832 431.228 33.6829 431.255 32.6826C431.318 30.2321 431.385 27.7864 431.457 25.3359C431.605 25.3359 431.753 25.3359 431.905 25.3359C431.937 25.0008 431.973 24.6658 432.009 24.3212C432.498 20.5449 433.457 18.0274 436.247 15.5817C439.763 13.27 444.594 13.5954 448.052 15.7635Z" fill="#5AB134"/>
<path d="M347.385 14.5969C348.27 14.9888 348.27 14.9888 349.488 15.7059C349.488 16.0214 349.488 16.3368 349.488 16.6619C349.793 16.6619 350.099 16.6619 350.414 16.6619C350.414 16.9774 350.414 17.2929 350.414 17.6179C350.72 17.6179 351.026 17.6179 351.34 17.6179C351.637 18.3732 351.938 19.1333 352.234 19.8885C352.485 20.5195 352.485 20.5195 352.739 21.1648C353.48 23.1821 353.717 24.836 353.712 27.0014C353.712 27.6898 353.712 27.6898 353.717 28.3925C353.656 29.5684 353.656 29.5684 353.193 30.5244C352.429 30.5388 351.665 30.5483 350.905 30.5531C350.266 30.5627 350.266 30.5627 349.617 30.5722C348.561 30.5244 348.561 30.5244 348.098 30.0464C347.922 28.7128 347.769 27.3839 347.635 26.0454C347.556 25.3045 347.477 24.5636 347.403 23.8226C347.366 23.4928 347.334 23.163 347.301 22.8236C347.181 21.8149 347.181 21.8149 346.709 20.4861C344.652 19.5539 341.813 19.7786 339.761 20.4861C338.468 23.5932 338.691 26.9011 338.691 30.2281C338.691 30.8399 338.691 31.4566 338.686 32.0876C338.682 33.3878 338.682 34.6832 338.686 35.9786C338.691 37.6326 338.682 39.2865 338.672 40.9405C338.663 42.5275 338.663 44.1145 338.663 45.7015C338.658 46.2943 338.654 46.887 338.649 47.4941C338.612 51.4234 338.612 51.4234 340.224 54.9034C342.294 55.6157 344.17 55.6157 346.245 54.9034C347.223 53.3881 347.325 52.7906 347.464 51.0267C347.501 50.5582 347.542 50.0898 347.579 49.607C347.616 49.1146 347.653 48.627 347.691 48.1203C347.732 47.628 347.769 47.1308 347.811 46.6193C347.908 45.4004 348.006 44.1767 348.098 42.9529C348.849 43.0199 349.604 43.0916 350.354 43.1633C350.775 43.2015 351.192 43.2397 351.623 43.278C352.73 43.431 352.73 43.431 353.656 43.909C354.018 54.239 354.018 54.239 350.993 58.2495C349.001 60.3911 346.306 61.4379 343.466 61.7439C340.571 61.6961 337.51 60.6301 335.388 58.6081C335.147 58.1731 334.911 57.7428 334.666 57.2935C334.189 56.5239 334.189 56.5239 333.707 55.7399C332.303 52.8049 332.544 49.65 332.563 46.452C332.563 45.7685 332.563 45.0897 332.558 44.4061C332.558 42.9864 332.558 41.5619 332.567 40.1422C332.581 38.3305 332.572 36.5188 332.563 34.7071C332.554 33.3017 332.558 31.8964 332.563 30.491C332.563 29.8265 332.563 29.1573 332.558 28.4929C332.535 23.8752 332.859 20.3474 335.763 16.724C339.154 13.8894 343.188 13.4018 347.385 14.5969Z" fill="#5AB134"/>
<path d="M409.789 16.689C412.347 16.6802 414.905 16.6714 417.463 16.6669C418.333 16.6625 419.208 16.6581 420.078 16.6537C421.327 16.6493 422.575 16.6493 423.823 16.6449C424.219 16.6449 424.61 16.6404 425.014 16.6404C425.946 16.6404 426.878 16.6625 427.81 16.689C428.249 17.1307 428.249 17.1307 428.306 18.0273C428.306 18.3895 428.306 18.7473 428.302 19.1183C428.306 19.6571 428.306 19.6571 428.306 20.2093C428.249 21.1059 428.249 21.1059 427.81 21.5476C426.931 21.6182 426.051 21.658 425.172 21.6889C424.689 21.7021 424.21 21.7198 423.713 21.7375C422.79 21.7684 422.79 21.7684 421.85 21.7949C419.898 21.8612 417.951 21.923 415.942 21.9892C415.942 26.2162 415.942 30.4431 415.942 34.7981C419.103 34.9262 419.103 34.9262 422.267 35.0498C422.658 35.0675 423.05 35.0808 423.454 35.0984C424.056 35.1249 424.056 35.1249 424.676 35.147C425.612 35.2398 425.612 35.2398 426.051 35.6815C426.095 36.344 426.109 37.0065 426.104 37.669C426.109 38.2079 426.109 38.2079 426.109 38.76C426.051 39.6566 426.051 39.6566 425.612 40.0983C424.896 40.169 424.175 40.2087 423.454 40.2396C422.865 40.2617 422.865 40.2617 422.267 40.2882C421.516 40.3191 421.516 40.3191 420.751 40.3456C419.164 40.4119 417.577 40.4737 415.942 40.54C415.797 45.0584 415.652 49.5768 415.503 54.2322C419.533 54.2145 419.533 54.2145 423.564 54.1924C424.06 54.1924 424.561 54.188 425.076 54.188C425.845 54.1836 425.845 54.1836 426.632 54.1836C427.81 54.2322 427.81 54.2322 428.249 54.6739C428.249 56.1314 428.249 57.589 428.249 59.0907C422.447 59.0907 416.646 59.0907 410.668 59.0907C409.671 57.0855 409.671 55.5705 409.688 53.393C409.688 52.9955 409.688 52.598 409.688 52.1916C409.688 50.8798 409.697 49.5724 409.701 48.2606C409.706 47.3552 409.706 46.4453 409.706 45.5354C409.71 43.1459 409.719 40.7564 409.728 38.3669C409.736 35.9244 409.741 33.4863 409.745 31.0482C409.754 26.2603 409.772 21.4769 409.789 16.689Z" fill="#5AB134"/>
<path d="M253.299 16.6404C253.678 16.6404 254.061 16.6404 254.454 16.6449C254.842 16.6449 255.23 16.6404 255.632 16.6404C256.458 16.6404 257.279 16.6404 258.105 16.6449C259.369 16.6449 260.637 16.6449 261.901 16.6404C262.7 16.6404 263.499 16.6404 264.298 16.6449C264.681 16.6404 265.06 16.6404 265.453 16.6404C268.125 16.6493 268.125 16.6493 268.63 17.1438C268.671 17.8061 268.689 18.4684 268.684 19.1308C268.689 19.6695 268.689 19.6695 268.689 20.2214C268.63 21.1177 268.63 21.1177 268.179 21.5593C267.276 21.599 266.369 21.6078 265.466 21.6034C264.975 21.599 264.478 21.599 263.973 21.599C263.341 21.5946 262.709 21.5902 262.054 21.5858C259.053 21.5725 259.053 21.5725 255.993 21.5593C255.993 26.0763 255.993 30.5933 255.993 35.2472C259.238 35.2295 259.238 35.2295 262.488 35.2075C262.889 35.2075 263.291 35.2031 263.706 35.2031C264.117 35.2031 264.532 35.1986 264.956 35.1986C265.922 35.2472 265.922 35.2472 266.374 35.6888C266.414 36.3511 266.432 37.0134 266.428 37.6757C266.432 38.2144 266.432 38.2144 266.432 38.7663C266.374 39.6627 266.374 39.6627 265.922 40.1042C265.182 40.144 264.442 40.1528 263.706 40.1484C263.305 40.144 262.898 40.144 262.488 40.144C261.973 40.1395 261.459 40.1351 260.926 40.1307C259.297 40.1219 257.667 40.1131 255.993 40.1042C255.993 44.767 255.993 49.4297 255.993 54.2337C259.983 54.216 259.983 54.216 263.973 54.194C264.713 54.194 264.713 54.194 265.466 54.1896C265.976 54.1896 266.482 54.1851 267.006 54.1851C268.179 54.2337 268.179 54.2337 268.63 54.6753C268.63 56.1324 268.63 57.5895 268.63 59.0907C262.524 59.0907 256.417 59.0907 250.126 59.0907C250.112 53.6288 250.108 48.1669 250.099 42.7049C250.099 40.1705 250.094 37.636 250.09 35.0971C250.085 32.6553 250.081 30.2092 250.081 27.763C250.081 26.8269 250.081 25.8953 250.076 24.9592C250.071 23.6522 250.071 22.3496 250.071 21.0427C250.071 20.6541 250.071 20.2611 250.067 19.8593C250.071 16.7464 250.108 16.6537 253.299 16.6404Z" fill="#5AB134"/>
<path d="M272.286 16.689C275.077 16.6802 277.874 16.6714 280.665 16.6669C281.616 16.6625 282.567 16.6581 283.517 16.6537C284.88 16.6493 286.243 16.6493 287.606 16.6449C288.037 16.6449 288.463 16.6404 288.903 16.6404C289.924 16.6404 290.941 16.6625 291.957 16.689C292.767 17.4531 292.585 18.4072 292.632 19.4496C292.594 22.5148 291.522 24.6349 290.056 27.3204C289.203 28.9723 288.482 30.6728 287.742 32.3688C286.711 34.7009 285.667 37.0153 284.52 39.2988C282.88 42.585 281.438 45.9506 279.981 49.3118C279.784 49.7579 279.592 50.204 279.391 50.659C279.218 51.0609 279.044 51.4628 278.866 51.8736C278.375 52.9071 278.375 52.9071 277.438 54.2322C277.874 54.2278 278.314 54.2278 278.763 54.2234C280.379 54.2189 282 54.2101 283.616 54.2101C284.318 54.2057 285.016 54.2013 285.719 54.1969C286.726 54.1924 287.728 54.1924 288.735 54.188C289.643 54.1836 289.643 54.1836 290.571 54.1836C291.957 54.2322 291.957 54.2322 292.425 54.6739C292.425 56.1314 292.425 57.589 292.425 59.0907C285.47 59.0907 278.515 59.0907 271.349 59.0907C271.349 53.5034 271.349 53.5034 272.811 50.5309C273.035 50.0494 273.035 50.0494 273.265 49.5592C273.71 48.6095 274.164 47.6643 274.628 46.7236C274.862 46.2421 275.096 45.7563 275.34 45.2616C275.785 44.3561 276.23 43.4507 276.679 42.5496C277.644 40.5488 278.557 38.5347 279.457 36.5118C279.621 36.1408 279.784 35.7742 279.953 35.3988C280.562 34.0251 281.157 32.6736 281.653 31.2646C281.995 30.6065 282.351 29.9528 282.707 29.3035C284.037 26.7727 285.185 24.1579 286.337 21.5476C281.7 21.5476 277.063 21.5476 272.286 21.5476C272.286 19.9442 272.286 18.3409 272.286 16.689Z" fill="#5AB134"/>
<path d="M175.623 16.7451C178.293 16.7233 180.964 16.7058 183.634 16.6971C184.543 16.6928 185.452 16.6884 186.361 16.6797C187.668 16.6666 188.97 16.6622 190.276 16.6579C190.682 16.6535 191.088 16.6492 191.508 16.6448C191.887 16.6448 192.267 16.6448 192.66 16.6448C193.158 16.6448 193.158 16.6448 193.67 16.6404C194.747 16.7625 195.449 17.0503 196.367 17.617C196.667 18.4366 196.667 18.4366 196.755 19.3609C196.786 19.6661 196.822 19.9712 196.861 20.2851C196.808 21.1048 196.808 21.1048 195.926 21.9767C194.716 22.0421 193.551 22.0595 192.342 22.029C192.006 22.029 191.675 22.0247 191.331 22.0203C190.51 22.0072 189.685 21.9941 188.864 21.9767C188.864 22.4345 188.864 22.8922 188.868 23.3631C188.877 27.6705 188.881 31.9735 188.886 36.2765C188.89 38.4912 188.89 40.7059 188.899 42.9206C188.904 45.0525 188.904 47.1888 188.904 49.3207C188.908 50.1359 188.908 50.9555 188.912 51.7708C188.912 52.9087 188.912 54.0466 188.912 55.1888C188.917 55.5289 188.917 55.8689 188.917 56.2177C188.912 58.5501 188.912 58.5501 188.422 59.034C187.615 59.0776 186.803 59.0907 185.995 59.0864C185.554 59.0907 185.112 59.0907 184.658 59.0907C183.568 59.034 183.568 59.034 183.126 58.5981C183.082 57.4558 183.069 56.3267 183.078 55.1888C183.078 54.8313 183.078 54.4738 183.078 54.1032C183.078 52.9174 183.078 51.7316 183.082 50.5457C183.082 49.7261 183.086 48.9021 183.086 48.0825C183.086 45.9201 183.091 43.7577 183.095 41.5909C183.1 39.3849 183.104 37.1789 183.104 34.9729C183.109 30.6394 183.117 26.3102 183.126 21.9767C182.623 21.9811 182.115 21.9854 181.599 21.9941C180.937 21.9941 180.279 21.9985 179.622 22.0029C179.123 22.0116 179.123 22.0116 178.615 22.0159C177.764 22.0203 176.912 21.9985 176.064 21.9767C175.623 21.5407 175.623 21.5407 175.579 20.4508C175.583 20.0105 175.592 19.5702 175.597 19.1167C175.601 18.6764 175.605 18.2317 175.605 17.7783C175.614 17.4383 175.619 17.0982 175.623 16.7451Z" fill="#5AB134"/>
<path d="M457.323 16.6548C457.931 16.6548 457.931 16.6548 458.548 16.6504C459.205 16.6504 459.205 16.6504 459.881 16.6548C460.326 16.6548 460.777 16.6504 461.236 16.6504C462.186 16.6504 463.137 16.6504 464.087 16.6548C465.546 16.6548 467.005 16.6548 468.464 16.6504C469.382 16.6504 470.301 16.6504 471.224 16.6548C471.661 16.6504 472.102 16.6504 472.553 16.6504C472.958 16.6504 473.363 16.6548 473.778 16.6548C474.314 16.6548 474.314 16.6548 474.863 16.6548C475.683 16.7122 475.683 16.7122 476.133 17.1536C476.178 17.8158 476.191 18.478 476.191 19.1401C476.191 19.6787 476.191 19.6787 476.191 20.2305C476.133 21.1266 476.133 21.1266 475.683 21.5681C472.116 21.7844 472.116 21.7844 468.477 22.0095C468.329 34.2463 468.18 46.4831 468.027 59.0907C466.392 59.0907 464.758 59.0907 463.073 59.0907C462.925 46.8539 462.776 34.6171 462.623 22.0095C460.245 21.8638 457.868 21.7181 455.418 21.5681C454.968 21.1266 454.968 21.1266 454.909 20.2305C454.909 19.8685 454.909 19.5109 454.914 19.1401C454.909 18.7781 454.909 18.4206 454.909 18.0498C455.017 16.3988 455.846 16.6548 457.323 16.6548Z" fill="#5AB134"/>
</svg>
