<svg width="56" height="45" viewBox="0 0 56 45" fill="none" xmlns="http://www.w3.org/2000/svg">
<path d="M17.0927 0.931506C17.4081 0.929106 17.4081 0.929106 17.7283 0.924306C22.2501 0.8835 26.6278 0.873899 31.0422 1.94924C31.3281 2.01645 31.3281 2.01645 31.619 2.08606C36.5833 3.28862 41.2274 5.54732 45.2189 8.67013C45.3876 8.79735 45.5538 8.92456 45.7273 9.05658C46.0573 9.31341 46.375 9.58945 46.6855 9.87029C46.6855 10.0287 46.6855 10.1871 46.6855 10.3503C46.8468 10.3503 47.0081 10.3503 47.1743 10.3503C53.4756 16.1879 55.6804 24.9659 55.9737 33.1534C56.0812 36.8474 55.8637 40.5487 55.2404 44.1948C54.9177 44.1948 54.5951 44.1948 54.2627 44.1948C54.2382 43.9332 54.2382 43.9332 54.2138 43.6643C53.6321 37.4187 52.7008 31.3891 49.863 25.7124C49.7408 25.4603 49.621 25.2107 49.4939 24.9515C48.8217 23.5881 48.0958 22.3231 47.1988 21.0894C46.9299 20.6717 46.9299 20.6717 46.9299 20.1916C46.7686 20.1916 46.6072 20.1916 46.441 20.1916C46.1208 19.834 45.8177 19.4596 45.5244 19.0803C44.9256 18.3242 44.3341 17.6137 43.6301 16.9512C43.4297 16.752 43.2268 16.5552 43.0191 16.3511C43.0191 16.1927 43.0191 16.0343 43.0191 15.8711C42.8431 15.8111 42.6671 15.7487 42.4862 15.6863C41.7407 15.367 41.1761 14.9758 40.5284 14.4909C34.7501 10.3143 27.6617 8.14926 20.5318 7.71C20.7885 7.77961 21.0476 7.84922 21.3115 7.92123C24.6895 8.85735 27.8646 10.0839 31.0422 11.5505C31.0422 11.7089 31.0422 11.8673 31.0422 12.0306C31.179 12.0546 31.3135 12.0786 31.4528 12.105C37.803 13.9556 43.1657 21.8167 46.1966 27.1526C47.6754 29.8649 49.0979 32.9829 49.6186 36.0337C48.5847 36.7082 47.5361 37.0851 46.3653 37.4595C46.0744 37.5507 46.0744 37.5507 45.7786 37.6468C39.1009 39.759 31.7877 40.8608 25.1759 37.954C22.981 36.8114 21.0842 35.3376 19.3097 33.6334C19.1679 33.5038 19.0237 33.3742 18.8771 33.2422C18.5764 32.9133 18.5764 32.9133 18.5764 32.4333C18.4151 32.4333 18.2538 32.4333 18.0876 32.4333C17.7723 32.0828 17.7723 32.0828 17.4472 31.622C17.3372 31.4731 17.2272 31.3219 17.1147 31.1659C16.8654 30.753 16.8654 30.753 16.8654 30.273C16.7041 30.273 16.5428 30.273 16.3766 30.273C16.1053 29.9297 16.1053 29.9297 15.8095 29.4449C15.6995 29.2672 15.5895 29.0896 15.4771 28.9072C15.3598 28.7152 15.2449 28.5207 15.1251 28.3215C15.0029 28.1271 14.8831 27.9303 14.7609 27.7286C13.0059 24.8507 11.3243 21.9343 9.73795 18.9651C9.5473 18.6074 9.35665 18.2522 9.16599 17.8969C9.07311 17.7193 8.97779 17.5441 8.88246 17.3641C8.24451 16.1807 7.57233 15.0286 6.84394 13.898C6.59952 13.4708 6.59952 13.4708 6.59952 12.9907C6.43819 12.9907 6.27687 12.9907 6.11066 12.9907C5.6878 12.4818 5.68781 12.4818 5.22584 11.8193C5.06941 11.6033 4.91542 11.3849 4.75654 11.1617C4.39968 10.5904 4.39968 10.5904 4.39968 10.1103C4.23836 10.1103 4.07703 10.1103 3.91082 10.1103C3.55641 9.75747 3.55641 9.75747 3.14821 9.27021C2.36116 8.35569 1.52522 7.52998 0.635509 6.71627C0.195541 6.2122 0.00733279 5.97697 0 5.30968C0.376417 4.54878 0.77972 4.19354 1.56677 3.85749C2.29761 3.61266 3.03089 3.39903 3.77394 3.19501C4.0257 3.1182 4.27991 3.04379 4.54144 2.96697C5.66825 2.64293 6.63862 2.3837 7.82165 2.4293C7.82165 2.27088 7.82165 2.11246 7.82165 1.94924C7.98297 1.93724 8.14185 1.92524 8.30561 1.91324C10.2537 1.75722 12.1676 1.47638 14.0839 1.10433C15.0909 0.962711 16.0759 0.941108 17.0927 0.931506Z" fill="#5AB134"/>
</svg>
